<svg width="29" height="29" viewBox="0 0 29 29" fill="none" xmlns="http://www.w3.org/2000/svg">
<g clip-path="url(#clip0_1535_12592)">
<path d="M28.3313 5.10121C28.4535 4.90087 28.5351 4.67842 28.5713 4.44656C28.6075 4.2147 28.5977 3.97798 28.5424 3.74993C28.4871 3.52187 28.3873 3.30694 28.2489 3.11742C28.1105 2.92789 27.936 2.76749 27.7356 2.64537L23.8419 0.263376C23.6417 0.130097 23.4166 0.0385964 23.1802 -0.00564156C22.9437 -0.0498796 22.7008 -0.0459447 22.4659 0.00592737C22.231 0.0577994 22.009 0.156541 21.8132 0.296234C21.6174 0.435928 21.4518 0.613698 21.3264 0.818892C21.2009 1.02409 21.1183 1.25248 21.0832 1.49039C21.0482 1.72829 21.0616 1.97082 21.1226 2.20342C21.1836 2.43603 21.291 2.65393 21.4383 2.84407C21.5855 3.0342 21.7697 3.19266 21.9797 3.30995L25.8745 5.69195C26.0749 5.81415 26.2975 5.89568 26.5294 5.93189C26.7614 5.9681 26.9982 5.95827 27.2263 5.90297C27.4545 5.84767 27.6695 5.74798 27.8591 5.60959C28.0487 5.47121 28.2091 5.29684 28.3313 5.09645V5.10121ZM0.848236 21.4179C1.25161 21.1692 1.73729 21.0908 2.19846 21.2C2.65962 21.3093 3.05851 21.5971 3.30738 22.0003L5.69027 25.8603C5.81912 26.06 5.90685 26.2833 5.94831 26.5172C5.98978 26.7511 5.98415 26.991 5.93175 27.2227C5.87936 27.4545 5.78125 27.6734 5.64317 27.8668C5.50509 28.0602 5.32981 28.2241 5.1276 28.3489C4.92538 28.4737 4.70029 28.557 4.46549 28.5938C4.23069 28.6306 3.99091 28.6203 3.76017 28.5633C3.52943 28.5064 3.31237 28.404 3.12169 28.2621C2.93102 28.1203 2.77056 27.9419 2.6497 27.7373L0.266812 23.8773C0.143193 23.6776 0.0601685 23.4555 0.0224863 23.2238C-0.0151959 22.992 -0.006797 22.755 0.0472043 22.5265C0.101206 22.298 0.199749 22.0823 0.337198 21.8919C0.474647 21.7015 0.648303 21.54 0.848236 21.4167V21.4179ZM3.77085 18.4404L8.06005 25.4256C8.58167 26.2798 9.29123 27.0038 10.1348 27.5426C10.9784 28.0815 11.9338 28.421 12.9283 28.5353C13.1905 28.5656 13.4542 28.5811 13.7182 28.5818C15.1827 28.5759 16.603 28.0799 17.7525 27.1728C18.6875 28.079 19.9402 28.5833 21.2425 28.5779C22.5448 28.5724 23.7932 28.0576 24.7206 27.1437C25.648 26.2297 26.1807 24.9892 26.2046 23.6876C26.2285 22.386 25.7419 21.1267 24.8487 20.1793L26.6287 18.3928C27.3411 17.6865 27.8831 16.8272 28.2134 15.8801C28.5437 14.9331 28.6537 13.9232 28.535 12.9273C28.4221 11.9412 28.0858 10.9939 27.5517 10.1573C27.0176 9.32065 26.2998 8.61671 25.4528 8.09896L18.9153 4.06504C17.112 2.91161 15.0041 2.32535 12.864 2.38204C10.7239 2.43873 8.64996 3.13576 6.91031 4.38304L5.43291 2.90501C5.09765 2.56987 4.64293 2.38159 4.16879 2.38159C3.69465 2.38159 3.23994 2.56987 2.90467 2.90501C2.5694 3.24015 2.38105 3.6947 2.38105 4.16866C2.38105 4.64262 2.5694 5.09717 2.90467 5.43231L4.38087 6.90796C3.19512 8.575 2.50814 10.5448 2.40013 12.5874C2.29212 14.63 2.76752 16.6613 3.77085 18.444V18.4404ZM8.06005 8.07037C9.2161 6.90771 10.7359 6.17624 12.366 5.99788C13.9962 5.81952 15.6382 6.20504 17.0185 7.09018L23.5715 11.1396C23.958 11.3766 24.2855 11.6985 24.5291 12.0809C24.7727 12.4633 24.926 12.8961 24.9774 13.3465C25.0318 13.8069 24.9805 14.2736 24.8273 14.7111C24.6741 15.1486 24.4231 15.5455 24.0933 15.8714L15.8581 24.1227C15.5317 24.4475 15.136 24.6943 14.7006 24.8446C14.2653 24.9949 13.8016 25.0449 13.3442 24.9907C12.8868 24.9365 12.4477 24.7796 12.0595 24.5317C11.6714 24.2838 11.3444 23.9514 11.103 23.5593L6.84597 16.6301C6.09078 15.2658 5.80065 13.6928 6.01949 12.149C6.23833 10.6053 6.95423 9.17476 8.05886 8.07395L8.06005 8.07037Z" fill="white"/>
</g>
<defs>
<clipPath id="clip0_1535_12592">
<rect width="28.5947" height="28.584" rx="8" transform="matrix(-1 0 0 1 28.5947 0)" fill="white"/>
</clipPath>
</defs>
</svg>
