<svg width="29" height="29" viewBox="0 0 29 29" fill="none" xmlns="http://www.w3.org/2000/svg">
<path d="M0.26143 5.10121C0.139184 4.90087 0.0576214 4.67842 0.0214006 4.44656C-0.0148201 4.2147 -0.00498915 3.97798 0.050332 3.74993C0.105653 3.52187 0.20538 3.30694 0.343817 3.11742C0.482253 2.92789 0.656687 2.76749 0.857152 2.64537L4.75079 0.263376C4.95102 0.130097 5.1761 0.0385964 5.41256 -0.00564156C5.64901 -0.0498796 5.89196 -0.0459447 6.12685 0.00592737C6.36175 0.0577994 6.58375 0.156541 6.77955 0.296234C6.97535 0.435928 7.14093 0.613698 7.26635 0.818892C7.39178 1.02409 7.47447 1.25248 7.50948 1.49039C7.54448 1.72829 7.53108 1.97082 7.47008 2.20342C7.40907 2.43603 7.30172 2.65393 7.15445 2.84407C7.00718 3.0342 6.82302 3.19266 6.61302 3.30995L2.71819 5.69195C2.51777 5.81415 2.29524 5.89568 2.06329 5.93189C1.83135 5.9681 1.59454 5.95827 1.3664 5.90297C1.13825 5.84767 0.923241 5.74798 0.733648 5.60959C0.544055 5.47121 0.383593 5.29684 0.26143 5.09645V5.10121ZM27.7445 21.4179C27.3411 21.1692 26.8554 21.0908 26.3943 21.2C25.9331 21.3093 25.5342 21.5971 25.2853 22.0003L22.9025 25.8603C22.7736 26.06 22.6859 26.2833 22.6444 26.5172C22.6029 26.7511 22.6086 26.991 22.661 27.2227C22.7134 27.4545 22.8115 27.6734 22.9496 27.8668C23.0876 28.0602 23.2629 28.2241 23.4651 28.3489C23.6673 28.4737 23.8924 28.557 24.1272 28.5938C24.362 28.6306 24.6018 28.6203 24.8326 28.5633C25.0633 28.5064 25.2804 28.404 25.471 28.2621C25.6617 28.1203 25.8222 27.9419 25.943 27.7373L28.3259 23.8773C28.4495 23.6776 28.5326 23.4555 28.5702 23.2238C28.6079 22.992 28.5995 22.755 28.5455 22.5265C28.4915 22.298 28.393 22.0823 28.2555 21.8919C28.1181 21.7015 27.9444 21.54 27.7445 21.4167V21.4179ZM24.8219 18.4404L20.5327 25.4256C20.0111 26.2798 19.3015 27.0038 18.4579 27.5426C17.6143 28.0815 16.659 28.421 15.6644 28.5353C15.4022 28.5656 15.1385 28.5811 14.8745 28.5818C13.41 28.5759 11.9897 28.0799 10.8403 27.1728C9.90526 28.079 8.65256 28.5833 7.35026 28.5779C6.04796 28.5724 4.79952 28.0576 3.87213 27.1437C2.94473 26.2297 2.41207 24.9892 2.38813 23.6876C2.36419 22.386 2.85087 21.1267 3.74402 20.1793L1.964 18.3928C1.25159 17.6865 0.709631 16.8272 0.379306 15.8801C0.0489816 14.9331 -0.0610097 13.9232 0.0576926 12.9273C0.170639 11.9412 0.506932 10.9939 1.04102 10.1573C1.5751 9.32065 2.29293 8.61671 3.13996 8.09896L9.67742 4.06504C11.4807 2.91161 13.5886 2.32535 15.7287 2.38204C17.8689 2.43873 19.9428 3.13576 21.6824 4.38304L23.1598 2.90501C23.4951 2.56987 23.9498 2.38159 24.4239 2.38159C24.8981 2.38159 25.3528 2.56987 25.6881 2.90501C26.0233 3.24015 26.2117 3.6947 26.2117 4.16866C26.2117 4.64262 26.0233 5.09717 25.6881 5.43231L24.2119 6.90796C25.3976 8.575 26.0846 10.5448 26.1926 12.5874C26.3006 14.63 25.8252 16.6613 24.8219 18.444V18.4404ZM20.5327 8.07037C19.3766 6.90771 17.8569 6.17624 16.2267 5.99788C14.5965 5.81952 12.9545 6.20504 11.5742 7.09018L5.02125 11.1396C4.63469 11.3766 4.30719 11.6985 4.0636 12.0809C3.82001 12.4633 3.66672 12.8961 3.61535 13.3465C3.56091 13.8069 3.61224 14.2736 3.76544 14.7111C3.91863 15.1486 4.16965 15.5455 4.4994 15.8714L12.7347 24.1227C13.0611 24.4475 13.4567 24.6943 13.8921 24.8446C14.3274 24.9949 14.7911 25.0449 15.2485 24.9907C15.7059 24.9365 16.1451 24.7796 16.5332 24.5317C16.9213 24.2838 17.2483 23.9514 17.4897 23.5593L21.7468 16.6301C22.5019 15.2658 22.7921 13.6928 22.5732 12.149C22.3544 10.6053 21.6385 9.17476 20.5339 8.07395L20.5327 8.07037Z" fill="white"/>
</svg>
