<svg width="40" height="36" viewBox="0 0 40 36" fill="none" xmlns="http://www.w3.org/2000/svg">
<path d="M28.7503 0C27.0408 0.0165378 25.359 0.433232 23.8395 1.2167C22.3201 2.00017 21.0052 3.12862 20.0003 4.51167C18.9954 3.12862 17.6806 2.00017 16.1611 1.2167C14.6416 0.433232 12.9598 0.0165378 11.2503 0C8.15327 0.123677 5.23119 1.46863 3.12301 3.74077C1.01484 6.01291 -0.10789 9.02737 0.00031935 12.125C0.00031935 19.7117 7.79032 27.8333 14.3337 33.3117C15.9225 34.6477 17.9319 35.3802 20.0078 35.3802C22.0837 35.3802 24.0931 34.6477 25.682 33.3117C32.2187 27.8333 40.0153 19.7117 40.0153 12.125C40.1235 9.02487 38.9987 6.00822 36.8873 3.73565C34.7759 1.46308 31.85 0.119814 28.7503 0V0ZM22.462 29.48C21.7727 30.0604 20.9006 30.3786 19.9995 30.3786C19.0984 30.3786 18.2263 30.0604 17.537 29.48C9.57032 22.8 5.00032 16.475 5.00032 12.125C4.89406 10.3537 5.49079 8.61196 6.66096 7.27797C7.83112 5.94398 9.48026 5.12541 11.2503 5C13.0204 5.12541 14.6695 5.94398 15.8397 7.27797C17.0099 8.61196 17.6066 10.3537 17.5003 12.125C17.5003 12.788 17.7637 13.4239 18.2326 13.8928C18.7014 14.3616 19.3373 14.625 20.0003 14.625C20.6634 14.625 21.2992 14.3616 21.7681 13.8928C22.2369 13.4239 22.5003 12.788 22.5003 12.125C22.3941 10.3537 22.9908 8.61196 24.161 7.27797C25.3311 5.94398 26.9803 5.12541 28.7503 5C30.5204 5.12541 32.1695 5.94398 33.3397 7.27797C34.5099 8.61196 35.1066 10.3537 35.0003 12.125C35.0003 16.475 30.4303 22.8 22.462 29.48Z" fill="#BABABA"/>
</svg>
