<svg width="35" height="35" viewBox="0 0 35 35" fill="none" xmlns="http://www.w3.org/2000/svg">
<path d="M25.5176 0C23.8761 0.0290587 22.2704 0.550571 20.8627 1.51187C19.4549 2.47317 18.295 3.84022 17.5 5.47496C16.705 3.84022 15.5451 2.47317 14.1373 1.51187C12.7296 0.550571 11.1239 0.0290587 9.4824 0C6.86566 0.129393 4.40027 1.43221 2.62485 3.62382C0.849429 5.81543 -0.0917059 8.71768 0.0070571 11.6965C0.0070571 19.2404 6.98383 27.4793 12.8352 33.0655C14.1417 34.315 15.7935 35 17.5 35C19.2065 35 20.8583 34.315 22.1648 33.0655C28.0162 27.4793 34.9929 19.2404 34.9929 11.6965C35.0917 8.71768 34.1506 5.81543 32.3752 3.62382C30.5997 1.43221 28.1343 0.129393 25.5176 0Z" fill="#F14E4E"/>
</svg>
