<svg width="24" height="24" viewBox="0 0 24 24" fill="none" xmlns="http://www.w3.org/2000/svg">
<g clip-path="url(#clip0_3476_11403)">
<path d="M17.2504 1.85059C16.2247 1.86051 15.2156 2.11053 14.3039 2.58061C13.3922 3.05069 12.6033 3.72776 12.0004 4.55759C11.3975 3.72776 10.6085 3.05069 9.69687 2.58061C8.78519 2.11053 7.77608 1.86051 6.75039 1.85059C4.89216 1.92479 3.13891 2.73176 1.874 4.09505C0.6091 5.45833 -0.0645385 7.26701 0.000386923 9.12559C0.000386923 13.6776 4.67439 18.5506 8.60039 21.8376C9.55372 22.6392 10.7593 23.0787 12.0049 23.0787C13.2504 23.0787 14.4561 22.6392 15.4094 21.8376C19.3314 18.5506 24.0094 13.6776 24.0094 9.12559C24.0743 7.26551 23.3994 5.45552 22.1326 4.09198C20.8658 2.72844 19.1102 1.92247 17.2504 1.85059V1.85059ZM13.4774 19.5386C13.0638 19.8868 12.5405 20.0778 11.9999 20.0778C11.4592 20.0778 10.936 19.8868 10.5224 19.5386C5.74239 15.5306 3.00039 11.7356 3.00039 9.12559C2.93663 8.0628 3.29467 7.01776 3.99677 6.21737C4.69887 5.41697 5.68835 4.92583 6.75039 4.85059C7.81242 4.92583 8.8019 5.41697 9.50401 6.21737C10.2061 7.01776 10.5641 8.0628 10.5004 9.12559C10.5004 9.52341 10.6584 9.90494 10.9397 10.1862C11.221 10.4676 11.6026 10.6256 12.0004 10.6256C12.3982 10.6256 12.7797 10.4676 13.061 10.1862C13.3424 9.90494 13.5004 9.52341 13.5004 9.12559C13.4366 8.0628 13.7947 7.01776 14.4968 6.21737C15.1989 5.41697 16.1884 4.92583 17.2504 4.85059C18.3124 4.92583 19.3019 5.41697 20.004 6.21737C20.7061 7.01776 21.0641 8.0628 21.0004 9.12559C21.0004 11.7356 18.2584 15.5306 13.4774 19.5386Z" fill="#F14E4E"/>
</g>
<defs>
<clipPath id="clip0_3476_11403">
<rect width="24" height="24" fill="white"/>
</clipPath>
</defs>
</svg>
