<svg width="26" height="26" viewBox="0 0 26 26" fill="none" xmlns="http://www.w3.org/2000/svg">
<g clip-path="url(#clip0_1022_4892)">
<path d="M18.9765 4.41818L18.4378 4.22209C18.1262 4.1087 17.7824 4.12371 17.482 4.26382C17.1815 4.40393 16.949 4.65765 16.8356 4.96918C16.7894 5.10792 16.7159 5.23599 16.6193 5.34582C16.5228 5.45565 16.4052 5.54502 16.2736 5.60864C16.1419 5.67226 15.9988 5.70885 15.8528 5.71624C15.7067 5.72362 15.5607 5.70166 15.4233 5.65165C15.2859 5.60163 15.1599 5.52458 15.0528 5.42505C14.9456 5.32552 14.8595 5.20552 14.7996 5.07215C14.7396 4.93878 14.707 4.79475 14.7036 4.64856C14.7003 4.50237 14.7263 4.35699 14.78 4.22101C14.8934 3.90948 14.8784 3.56567 14.7383 3.26521C14.5982 2.96475 14.3445 2.73225 14.033 2.61887L13.495 2.42306C12.3526 2.00869 11.0926 2.0644 9.99126 2.57795C8.88995 3.0915 8.03732 4.02096 7.62047 5.16239L3.34522 16.9085C3.08065 17.6354 3.11567 18.4377 3.44259 19.1387C3.7695 19.8398 4.36153 20.3823 5.08843 20.6469L7.19256 21.4127C7.50408 21.5261 7.84789 21.5111 8.14835 21.371C8.44881 21.2309 8.68131 20.9772 8.7947 20.6656C8.8409 20.5269 8.91444 20.3988 9.01098 20.289C9.10752 20.1792 9.22509 20.0898 9.35676 20.0262C9.48842 19.9625 9.6315 19.926 9.77754 19.9186C9.92359 19.9112 10.0696 19.9331 10.207 19.9832C10.3444 20.0332 10.4704 20.1102 10.5776 20.2098C10.6847 20.3093 10.7708 20.4293 10.8307 20.5627C10.8907 20.696 10.9233 20.8401 10.9267 20.9862C10.93 21.1324 10.9041 21.2778 10.8503 21.4138C10.7369 21.7253 10.7519 22.0691 10.892 22.3696C11.0321 22.6701 11.2858 22.9026 11.5974 23.0159L13.7023 23.7821C14.4292 24.0466 15.2314 24.0116 15.9325 23.6847C16.6335 23.3578 17.176 22.7657 17.4406 22.0389L21.7159 10.2927C22.1302 9.15036 22.0745 7.89029 21.561 6.78898C21.0474 5.68766 20.118 4.83504 18.9765 4.41818V4.41818ZM14.5573 21.4328L13.4219 21.0196C13.4266 20.2803 13.2026 19.5577 12.7805 18.9507C12.3584 18.3438 11.7589 17.8823 11.0642 17.6294C10.3695 17.3766 9.61358 17.3448 8.90011 17.5384C8.18663 17.732 7.55051 18.1416 7.07894 18.7109L5.94348 18.2976C5.83963 18.2599 5.75506 18.1824 5.70836 18.0822C5.66165 17.982 5.65665 17.8674 5.69445 17.7636L6.97702 14.2398L7.36856 14.3823C7.68009 14.4956 8.0239 14.4806 8.32436 14.3405C8.62482 14.2004 8.85732 13.9467 8.9707 13.6352C9.08409 13.3236 9.06908 12.9798 8.92897 12.6794C8.78886 12.3789 8.53514 12.1464 8.22361 12.033L7.83207 11.8905L9.9697 6.01744C10.1325 5.57026 10.4436 5.19232 10.8511 4.94647C11.2585 4.70062 11.7379 4.6017 12.2094 4.66615C12.2152 5.3967 12.4441 6.10804 12.8655 6.70483C13.2868 7.30163 13.8806 7.75537 14.5671 8.00524C15.2536 8.2551 16.0001 8.28917 16.7065 8.10285C17.4129 7.91654 18.0455 7.51876 18.5195 6.96282C18.9221 7.21653 19.2257 7.60045 19.3799 8.0507C19.534 8.50096 19.5293 8.99042 19.3666 9.43765L17.229 15.3107L16.8375 15.1682C16.5259 15.0548 16.1821 15.0698 15.8817 15.2099C15.5812 15.3501 15.3487 15.6038 15.2353 15.9153C15.1219 16.2268 15.1369 16.5706 15.2771 16.8711C15.4172 17.1716 15.6709 17.4041 15.9824 17.5174L16.3739 17.66L15.0914 21.1838C15.0536 21.2876 14.9761 21.3722 14.8759 21.4189C14.7758 21.4656 14.6612 21.4706 14.5573 21.4328Z" fill="white"/>
<path d="M12.9231 13.7418L12.14 13.4568C11.4913 13.2207 10.774 13.5552 10.5379 14.2039C10.3018 14.8526 10.6362 15.5699 11.285 15.8061L12.068 16.0911C12.7168 16.3272 13.4341 15.9927 13.6702 15.344C13.9063 14.6953 13.5718 13.978 12.9231 13.7418Z" fill="white"/>
</g>
<defs>
<clipPath id="clip0_1022_4892">
<rect width="20" height="20" fill="white" transform="translate(6.8404) rotate(20)"/>
</clipPath>
</defs>
</svg>
