<svg width="20" height="20" viewBox="0 0 20 20" fill="none" xmlns="http://www.w3.org/2000/svg">
<g clip-path="url(#clip0_1006_4994)">
<path d="M19.02 0.980487C18.3831 0.371864 17.536 0.0322266 16.655 0.0322266C15.774 0.0322266 14.927 0.371864 14.29 0.980487L1.34251 13.928C0.915771 14.3524 0.5774 14.8572 0.346966 15.4132C0.116532 15.9691 -0.00139215 16.5653 1.24005e-05 17.1672V18.7505C1.24005e-05 19.082 0.131708 19.3999 0.366129 19.6344C0.600549 19.8688 0.918492 20.0005 1.25001 20.0005H2.83335C3.43547 20.0021 4.03194 19.8843 4.58823 19.6539C5.14452 19.4234 5.64958 19.0849 6.07418 18.658L19.02 5.71049C19.6463 5.08277 19.9981 4.23223 19.9981 3.34549C19.9981 2.45874 19.6463 1.60821 19.02 0.980487ZM4.30501 16.8905C3.91367 17.2793 3.385 17.4984 2.83335 17.5005H2.50001V17.1672C2.50172 16.6149 2.72087 16.0856 3.11001 15.6938L12.75 6.05632L13.9442 7.25049L4.30501 16.8905ZM17.25 3.94299L15.7117 5.48382L14.5167 4.28882L16.0583 2.75049C16.2191 2.5968 16.433 2.51104 16.6554 2.51104C16.8779 2.51104 17.0917 2.5968 17.2525 2.75049C17.4097 2.90929 17.4976 3.12383 17.4972 3.34725C17.4967 3.57068 17.4078 3.78485 17.25 3.94299Z" fill="white"/>
</g>
<defs>
<clipPath id="clip0_1006_4994">
<rect width="20" height="20" fill="white"/>
</clipPath>
</defs>
</svg>
