<svg width="17" height="15" viewBox="0 0 17 15" fill="none" xmlns="http://www.w3.org/2000/svg">
<path d="M3.03969 14.6798L1.73969 13.4598L13.1397 0.0198433L14.5997 1.33984L3.03969 14.6798ZM3.77969 7.83984C2.96635 7.83984 2.27302 7.65984 1.69969 7.29984C1.13969 6.92651 0.713021 6.44651 0.419688 5.85984C0.139688 5.27318 -0.000312477 4.65318 -0.000312477 3.99984C-0.000312477 3.37318 0.146354 2.75984 0.439688 2.15984C0.733021 1.55984 1.15969 1.05984 1.71969 0.659843C2.27969 0.24651 2.95302 0.0331765 3.73969 0.0198433C4.56635 0.00651018 5.25969 0.193177 5.81969 0.579843C6.37969 0.953177 6.79969 1.43318 7.07969 2.01984C7.37302 2.60651 7.51969 3.20651 7.51969 3.81984C7.51969 4.52651 7.35302 5.18651 7.01969 5.79984C6.68635 6.41318 6.23969 6.90651 5.67969 7.27984C5.11969 7.65318 4.48635 7.83984 3.77969 7.83984ZM3.79969 6.23984C4.13302 6.23984 4.38635 6.13318 4.55969 5.91984C4.74635 5.69318 4.87969 5.41318 4.95969 5.07984C5.03969 4.74651 5.07969 4.42651 5.07969 4.11984C5.07969 3.85318 5.05969 3.57318 5.01969 3.27984C4.97969 2.98651 4.90635 2.71318 4.79969 2.45984C4.70635 2.19318 4.57302 1.97984 4.39969 1.81984C4.22635 1.64651 4.01302 1.55984 3.75969 1.55984C3.42635 1.55984 3.15969 1.68651 2.95969 1.93984C2.77302 2.19318 2.63969 2.48651 2.55969 2.81984C2.49302 3.15318 2.45969 3.44651 2.45969 3.69984C2.45969 3.95318 2.47969 4.22651 2.51969 4.51984C2.55969 4.81318 2.62635 5.09318 2.71969 5.35984C2.81302 5.61318 2.94635 5.82651 3.11969 5.99984C3.29302 6.15984 3.51969 6.23984 3.79969 6.23984ZM12.7197 14.6598C11.9064 14.6598 11.213 14.4798 10.6397 14.1198C10.0797 13.7465 9.65302 13.2665 9.35969 12.6798C9.07969 12.0932 8.93969 11.4732 8.93969 10.8198C8.93969 10.1932 9.08635 9.57984 9.37969 8.97984C9.67302 8.37984 10.0997 7.87984 10.6597 7.47984C11.2197 7.06651 11.893 6.85318 12.6797 6.83984C13.493 6.82651 14.1797 7.01318 14.7397 7.39984C15.2997 7.77318 15.7264 8.25318 16.0197 8.83984C16.313 9.42651 16.4597 10.0265 16.4597 10.6398C16.4597 11.3332 16.293 11.9865 15.9597 12.5998C15.6264 13.2132 15.1797 13.7132 14.6197 14.0998C14.0597 14.4732 13.4264 14.6598 12.7197 14.6598ZM12.7397 13.0598C13.073 13.0598 13.3264 12.9465 13.4997 12.7198C13.6864 12.4932 13.8197 12.2198 13.8997 11.8998C13.9797 11.5665 14.0197 11.2465 14.0197 10.9398C14.0197 10.6732 13.9997 10.3932 13.9597 10.0998C13.9197 9.80651 13.8464 9.53318 13.7397 9.27984C13.6464 9.01318 13.513 8.79984 13.3397 8.63984C13.1664 8.46651 12.953 8.37984 12.6997 8.37984C12.3664 8.37984 12.0997 8.50651 11.8997 8.75984C11.713 9.01318 11.5797 9.30651 11.4997 9.63984C11.4197 9.97318 11.3797 10.2665 11.3797 10.5198C11.3797 10.7732 11.3997 11.0465 11.4397 11.3398C11.4797 11.6332 11.5464 11.9132 11.6397 12.1798C11.7464 12.4332 11.8864 12.6465 12.0597 12.8198C12.233 12.9798 12.4597 13.0598 12.7397 13.0598Z" fill="white"/>
</svg>
