<svg width="20" height="20" viewBox="0 0 20 20" fill="none" xmlns="http://www.w3.org/2000/svg">
<g clip-path="url(#clip0_1006_4988)">
<path d="M19.1654 3.75C19.1654 3.05965 18.6057 2.5 17.9154 2.5H14.7687C14.2421 1.00613 12.8327 0.00507812 11.2487 0H8.74871C7.16477 0.00507812 5.75527 1.00613 5.22871 2.5H2.08203C1.39168 2.5 0.832031 3.05965 0.832031 3.75C0.832031 4.44035 1.39168 5 2.08203 5H2.49871V15.4167C2.49871 17.948 4.55074 20 7.08203 20H12.9154C15.4467 20 17.4987 17.948 17.4987 15.4167V5H17.9154C18.6057 5 19.1654 4.44035 19.1654 3.75ZM14.9987 15.4167C14.9987 16.5673 14.066 17.5 12.9154 17.5H7.08203C5.93145 17.5 4.99871 16.5673 4.99871 15.4167V5H14.9987V15.4167Z" fill="white"/>
<path d="M7.91406 15C8.60441 15 9.16406 14.4404 9.16406 13.75V8.75C9.16406 8.05965 8.60441 7.5 7.91406 7.5C7.22371 7.5 6.66406 8.05965 6.66406 8.75V13.75C6.66406 14.4404 7.22371 15 7.91406 15Z" fill="white"/>
<path d="M12.082 15C12.7724 15 13.332 14.4404 13.332 13.75V8.75C13.332 8.05965 12.7724 7.5 12.082 7.5C11.3917 7.5 10.832 8.05965 10.832 8.75V13.75C10.832 14.4404 11.3917 15 12.082 15Z" fill="white"/>
</g>
<defs>
<clipPath id="clip0_1006_4988">
<rect width="20" height="20" fill="white"/>
</clipPath>
</defs>
</svg>
