<svg width="10" height="10" viewBox="0 0 10 10" fill="none" xmlns="http://www.w3.org/2000/svg">
<g clip-path="url(#clip0_1535_9509)">
<path d="M5 0C4.0111 0 3.0444 0.293245 2.22215 0.842652C1.39991 1.39206 0.759043 2.17295 0.380605 3.08658C0.00216643 4.00021 -0.0968503 5.00555 0.0960758 5.97545C0.289002 6.94536 0.765206 7.83627 1.46447 8.53553C2.16373 9.2348 3.05465 9.711 4.02455 9.90393C4.99446 10.0969 5.99979 9.99784 6.91342 9.6194C7.82705 9.24096 8.60794 8.6001 9.15735 7.77785C9.70676 6.95561 10 5.98891 10 5C9.99857 3.67436 9.47132 2.40342 8.53395 1.46605C7.59658 0.528678 6.32564 0.00143378 5 0V0ZM5 8.75C4.25832 8.75 3.5333 8.53007 2.91661 8.11801C2.29993 7.70596 1.81928 7.12029 1.53545 6.43506C1.25163 5.74984 1.17736 4.99584 1.32206 4.26841C1.46675 3.54098 1.8239 2.8728 2.34835 2.34835C2.8728 1.8239 3.54098 1.46675 4.26841 1.32206C4.99584 1.17736 5.74984 1.25162 6.43507 1.53545C7.12029 1.81928 7.70596 2.29993 8.11801 2.91661C8.53007 3.5333 8.75 4.25832 8.75 5C8.74879 5.99419 8.35331 6.94731 7.65031 7.65031C6.94731 8.35331 5.99419 8.74879 5 8.75Z" fill="#273469"/>
<path d="M4.81078 3.97676H4.68578C4.52202 3.97274 4.36266 4.03003 4.23895 4.1374C4.11523 4.24477 4.03609 4.39448 4.01702 4.55718C4.00612 4.71994 4.05929 4.88051 4.16517 5.00461C4.27104 5.1287 4.42124 5.20648 4.58369 5.22134V7.15884C4.58369 7.3246 4.64954 7.48358 4.76675 7.60079C4.88396 7.718 5.04293 7.78384 5.20869 7.78384C5.37445 7.78384 5.53343 7.718 5.65064 7.60079C5.76785 7.48358 5.8337 7.3246 5.8337 7.15884V4.99968C5.8337 4.72838 5.72592 4.4682 5.53409 4.27637C5.34225 4.08453 5.08207 3.97676 4.81078 3.97676Z" fill="#273469"/>
<path d="M4.92887 3.52766C5.07028 3.52766 5.20852 3.48572 5.3261 3.40716C5.44369 3.32859 5.53533 3.21692 5.58945 3.08628C5.64356 2.95563 5.65772 2.81186 5.63013 2.67317C5.60255 2.53447 5.53445 2.40707 5.43445 2.30708C5.33446 2.20708 5.20706 2.13898 5.06836 2.1114C4.92966 2.08381 4.7859 2.09797 4.65525 2.15208C4.5246 2.2062 4.41293 2.29784 4.33437 2.41542C4.2558 2.53301 4.21387 2.67124 4.21387 2.81266C4.21381 2.90657 4.23227 2.99957 4.26818 3.08634C4.30409 3.17311 4.35676 3.25196 4.42316 3.31836C4.48957 3.38477 4.56841 3.43743 4.65519 3.47334C4.74196 3.50925 4.83496 3.52771 4.92887 3.52766Z" fill="#273469"/>
</g>
<defs>
<clipPath id="clip0_1535_9509">
<rect width="10" height="10" fill="white"/>
</clipPath>
</defs>
</svg>
