<svg width="20" height="20" viewBox="0 0 20 20" fill="none" xmlns="http://www.w3.org/2000/svg">
<g clip-path="url(#clip0_1220_7911)">
<path d="M19.1985 7.40385C17.1748 4.28154 13.7198 2.38256 9.99914 2.34766C6.27854 2.38256 2.82353 4.28154 0.799846 7.40385C-0.266615 8.96895 -0.266615 11.0273 0.799846 12.5924C2.82239 15.7166 6.27759 17.6176 9.99918 17.6536C13.7198 17.6187 17.1748 15.7197 19.1985 12.5974C20.2672 11.0312 20.2672 8.97008 19.1985 7.40385ZM17.1277 11.1734C15.5827 13.624 12.8961 15.1191 9.99914 15.1406C7.10222 15.1192 4.41561 13.624 2.87053 11.1734C2.38886 10.4657 2.38886 9.53551 2.87053 8.8279C4.41557 6.37728 7.10218 4.88215 9.99914 4.86067C12.8961 4.88211 15.5827 6.37728 17.1277 8.8279C17.6094 9.53551 17.6094 10.4657 17.1277 11.1734Z" fill="white"/>
<path d="M9.99911 13.3508C11.8496 13.3508 13.3498 11.8506 13.3498 10.0001C13.3498 8.14956 11.8496 6.64941 9.99911 6.64941C8.14859 6.64941 6.64844 8.14956 6.64844 10.0001C6.64844 11.8506 8.14859 13.3508 9.99911 13.3508Z" fill="white"/>
</g>
<defs>
<clipPath id="clip0_1220_7911">
<rect width="20" height="20" fill="white"/>
</clipPath>
</defs>
</svg>
