<svg width="25" height="25" viewBox="0 0 25 25" fill="none" xmlns="http://www.w3.org/2000/svg">
<path d="M16.9448 15.2197C17.2372 15.5234 17.6338 15.6941 18.0472 15.6941C18.4607 15.6941 18.8573 15.5234 19.1497 15.2197L24.0626 10.1155C24.6333 9.52132 24.9538 8.71616 24.9538 7.87671C24.9538 7.03726 24.6333 6.2321 24.0626 5.6379L19.1445 0.533746C19.0026 0.370678 18.8303 0.23931 18.6381 0.147636C18.4458 0.055961 18.2376 0.0058971 18.0261 0.000490262C17.8146 -0.00491658 17.6043 0.0344468 17.4079 0.116185C17.2116 0.197923 17.0332 0.320327 16.8838 0.475948C16.7344 0.631568 16.6171 0.817151 16.5389 1.0214C16.4607 1.22565 16.4233 1.4443 16.429 1.66405C16.4347 1.88379 16.4834 2.10003 16.572 2.2996C16.6607 2.49918 16.7875 2.67792 16.9448 2.82494L20.3046 6.24608H5.52941C4.06351 6.24808 2.6582 6.85409 1.62165 7.9312C0.585105 9.00832 0.00192538 10.4686 0 11.9919L0 19.209C0.00165088 20.7321 0.584633 22.1923 1.62105 23.2693C2.65746 24.3462 4.06266 24.952 5.52837 24.9538H19.421C19.8346 24.9538 20.2312 24.783 20.5236 24.4792C20.8161 24.1753 20.9804 23.7631 20.9804 23.3334C20.9804 22.9036 20.8161 22.4915 20.5236 22.1876C20.2312 21.8837 19.8346 21.713 19.421 21.713H5.52837C4.88953 21.7122 4.2771 21.4481 3.82537 20.9787C3.37364 20.5093 3.1195 19.8729 3.11867 19.209V11.9919C3.11922 11.3277 3.37339 10.6908 3.82537 10.2212C4.27735 9.7515 4.89021 9.48739 5.52941 9.48681H20.2485L16.9448 12.9285C16.6525 13.2323 16.4882 13.6444 16.4882 14.0741C16.4882 14.5037 16.6525 14.9158 16.9448 15.2197Z" fill="#E3F2FE"/>
</svg>
