<svg xmlns="http://www.w3.org/2000/svg" width="18.982" height="17.566" viewBox="0 0 18.982 17.566">
  <path id="Vector" d="M18.8,5.868a.822.822,0,0,1,.151.3.871.871,0,0,1,.024.34l-1.357,9.7a1.641,1.641,0,0,1-.5.977,1.385,1.385,0,0,1-.961.38H2.839a1.385,1.385,0,0,1-.961-.38,1.641,1.641,0,0,1-.5-.977L.008,6.507a.871.871,0,0,1,.021-.342.824.824,0,0,1,.15-.3.738.738,0,0,1,.252-.2.676.676,0,0,1,.307-.07H5.115V2.4A2.515,2.515,0,0,1,5.756.7,2.1,2.1,0,0,1,7.3,0H11.68a2.1,2.1,0,0,1,1.547.7A2.515,2.515,0,0,1,13.869,2.4V5.589h4.377a.677.677,0,0,1,.305.073.74.74,0,0,1,.249.206ZM6.574,5.589H12.41V2.4a.838.838,0,0,0-.214-.565A.7.7,0,0,0,11.68,1.6H7.3a.7.7,0,0,0-.516.234.838.838,0,0,0-.214.565Zm10.818,1.6H1.591l1.233,8.783H16.159Z" fill="#fff"/>
</svg>