<svg id="credit-card" xmlns="http://www.w3.org/2000/svg" width="60.952" height="38.172" viewBox="0 0 60.952 38.172">
  <g id="Groupe_68" data-name="Groupe 68">
    <path id="Tracé_11" data-name="Tracé 11" d="M9.424,61.847h18.47a.924.924,0,0,0,0-1.847H9.424a.924.924,0,1,0,0,1.847Z" transform="translate(-3.268 -35.373)" fill="#ea670b"/>
    <path id="Tracé_12" data-name="Tracé 12" d="M9.424,67.847h11.7a.924.924,0,0,0,0-1.847H9.424a.924.924,0,0,0,0,1.847Z" transform="translate(-3.268 -37.679)" fill="#ea670b"/>
    <path id="Tracé_13" data-name="Tracé 13" d="M57.1,20H3.854A3.858,3.858,0,0,0,0,23.854V54.318a3.858,3.858,0,0,0,3.854,3.854H57.1a3.858,3.858,0,0,0,3.854-3.854V23.854A3.858,3.858,0,0,0,57.1,20ZM1.847,29.851H59.1v5.541H1.847ZM59.1,54.318A2.009,2.009,0,0,1,57.1,56.325H3.854a2.009,2.009,0,0,1-2.007-2.007V37.239H59.1ZM1.847,28v-4.15a2.009,2.009,0,0,1,2.007-2.007H57.1A2.009,2.009,0,0,1,59.1,23.854V28Z" transform="translate(0 -20)" fill="#ea670b"/>
  </g>
</svg>
