<svg id="heart" xmlns="http://www.w3.org/2000/svg" width="60.379" height="52.127" viewBox="0 0 60.379 52.127">
  <path id="Tracé_14" data-name="Tracé 14" d="M56.222,12.01a15.837,15.837,0,0,0-21.891,0l-3.219,3.123L27.89,12.01A15.833,15.833,0,0,0,6,12.01,16.454,16.454,0,0,0,6,35.789l24.466,23.7a.924.924,0,0,0,1.285,0l24.468-23.7a16.454,16.454,0,0,0,0-23.779ZM54.937,34.462,31.111,57.536,7.288,34.462a14.607,14.607,0,0,1,0-21.125,13.986,13.986,0,0,1,19.318,0l3.864,3.746a.923.923,0,0,0,1.285,0l3.861-3.745a13.99,13.99,0,0,1,19.322,0,14.607,14.607,0,0,1,0,21.125Z" transform="translate(-0.923 -7.619)" fill="#ea670b"/>
  <path id="Tracé_15" data-name="Tracé 15" d="M16.556,16.462a12.692,12.692,0,0,0-4.235,2.716A13.4,13.4,0,0,0,8.15,28.821a.88.88,0,0,0,.919.877h0A.881.881,0,0,0,10,28.83a11.621,11.621,0,0,1,3.609-8.35,10.819,10.819,0,0,1,3.621-2.31.918.918,0,1,0-.671-1.708Z" transform="translate(-3.701 -10.993)" fill="#ea670b"/>
</svg>
