<svg id="ribbon" xmlns="http://www.w3.org/2000/svg" width="40.554" height="60.826" viewBox="0 0 40.554 60.826">
  <path id="Tracé_6" data-name="Tracé 6" d="M41.939,34.606A12.082,12.082,0,0,0,53.962,22.493V22.46a.909.909,0,0,0-.924-.907.938.938,0,0,0-.924.94A10.2,10.2,0,1,1,42.007,12.227a9.876,9.876,0,0,1,4.521,1.1.923.923,0,1,0,.829-1.65,11.679,11.679,0,0,0-5.35-1.3,12.113,12.113,0,0,0-.068,24.227Z" transform="translate(-21.86 -4.32)" fill="#ea670b"/>
  <path id="Tracé_7" data-name="Tracé 7" d="M63.6,20.655a.923.923,0,0,0,1.694-.737,12.116,12.116,0,0,0-2.207-3.385.924.924,0,1,0-1.358,1.252A10.265,10.265,0,0,1,63.6,20.655Z" transform="translate(-34.009 -6.571)" fill="#ea670b"/>
  <path id="Tracé_8" data-name="Tracé 8" d="M57.356,54.906l-8.368-22.53a18.174,18.174,0,1,0-25.768-1.869l-6.335,26a.924.924,0,0,0,.992,1.137l7.792-.8,7.274,4.388a.923.923,0,0,0,1.379-.59L36.59,50.429,40.544,60.77a.924.924,0,0,0,1.433.4l6.249-4.909,8.276-.106a.924.924,0,0,0,.854-1.245ZM37.028,2.385A16.326,16.326,0,1,1,20.7,18.711,16.344,16.344,0,0,1,37.028,2.385Zm-4.25,56.6L26.35,55.1a.9.9,0,0,0-.567-.128l-6.8.7,5.749-23.59a18.1,18.1,0,0,0,12.291,4.8c.228,0,.435-.009.661-.017L35.416,47.019h0Zm15.111-4.571a.924.924,0,0,0-.559.2l-5.51,4.328L37.316,47.158l2.323-10.465a18.063,18.063,0,0,0,7.825-3.118l7.7,20.746Z" transform="translate(-16.859 -0.538)" fill="#ea670b"/>
</svg>
