<svg id="upload-box" xmlns="http://www.w3.org/2000/svg" width="60.694" height="56.919" viewBox="0 0 60.694 56.919">
  <path id="Tracé_9" data-name="Tracé 9" d="M53.259,35.32v-18.6c0-.079-.1-.157-.118-.232,0-.017-.056-.031-.062-.048a.979.979,0,0,0-.1-.18c-.014-.025-.042-.046-.058-.069a.961.961,0,0,0-.111-.126c-.022-.021-.047-.041-.071-.06s-.033-.031-.051-.044a.892.892,0,0,0-.1-.05c-.016-.009-.029-.022-.046-.03L27.312,4.357a.92.92,0,0,0-.728-.017L1.352,14.487c-.019.008-.033.022-.052.03a.915.915,0,0,0-.114.057c-.014.009-.024.022-.037.031s-.05.041-.074.063a.934.934,0,0,0-.106.115c-.019.025-.038.05-.054.077a.918.918,0,0,0-.072.147.845.845,0,0,0-.031.081c-.02.067.047.138.043.209,0,.012.071.023.071.036V49.792a.859.859,0,0,0,.5.855L26.218,60.8a.847.847,0,0,0,.217.24.9.9,0,0,0,.851.086l10.793-4.458A13.426,13.426,0,1,0,53.259,35.32ZM15.688,10.713l22.126,10.4-10.659,4L4.117,15.366ZM26.906,6.2l22.85,10.431L40.227,20.21,18.028,9.772ZM2.774,16.746,26.169,26.8V58.73l-23.4-9.558ZM28.016,58.888V26.83l23.4-8.781V34.717a15.459,15.459,0,0,0-3.3-.393A13.315,13.315,0,0,0,37,55.153Zm20.009.369A11.543,11.543,0,1,1,59.569,47.714,11.555,11.555,0,0,1,48.025,59.257Z" transform="translate(-0.81 -4.273)" fill="#ea670b"/>
  <path id="Tracé_10" data-name="Tracé 10" d="M76.022,65.824a.923.923,0,0,0-.65-.279.937.937,0,0,0-.657.262L70.908,69.52a.923.923,0,0,0-.016,1.306,1.026,1.026,0,0,0,1.388.017l2.272-2.136v7.5a.924.924,0,0,0,1.847,0V68.689l2.094,2.233a.832.832,0,0,0,.62.279.874.874,0,0,0,.624-.262.923.923,0,0,0,.007-1.306Z" transform="translate(-27.643 -27.821)" fill="#ea670b"/>
</svg>
